<?xml version="1.0" encoding="utf-8"?>
<!-- Generator: Adobe Illustrator 18.1.0, SVG Export Plug-In . SVG Version: 6.00 Build 0)  -->
<!DOCTYPE svg PUBLIC "-//W3C//DTD SVG 1.1//EN" "http://www.w3.org/Graphics/SVG/1.1/DTD/svg11.dtd">
<svg version="1.1" id="Layer_1" xmlns="http://www.w3.org/2000/svg" xmlns:xlink="http://www.w3.org/1999/xlink" x="0px" y="0px"
	 viewBox="0 0 612 792" enable-background="new 0 0 612 792" xml:space="preserve">
<g name="scene">
	<g name="wrestler">
		<g name="front-leg">
			<g>
				<path fill="#942923" d="M201.6,721c-20,0-36.3-16.3-36.3-36.3v-71c0-20,16.3-36.3,36.3-36.3s36.3,16.3,36.3,36.3v71
					C237.9,704.7,221.6,721,201.6,721z M201.6,583.6c-16.6,0-30.1,13.5-30.1,30.1v71c0,16.6,13.5,30.1,30.1,30.1
					s30.1-13.5,30.1-30.1v-71C231.7,597.1,218.2,583.6,201.6,583.6z"/>
			</g>
		</g>
		<g name="front-arm">
			<g>
				<path fill="#942923" d="M192,488.2c-6.6,0-12.5-1.1-18.2-2.2c-1.2-0.2-2.3-0.4-3.5-0.6l-6.5-1.2l5.1-4.2
					c1.5-1.2,36.4-30.1,52.9-39.4c4.3-2.4,10.3-6,16.6-9.7c27.5-16.3,40.5-23.6,45.3-23.6c0.4,0,0.7,0,1,0.1
					c6.5,1.3,18.1,8.7,16.9,20.8c-1.1,11.2-5.8,15.1-11.7,20l-0.7,0.6c-6.6,5.5-63.2,31.3-79.2,36.6
					C204,487.3,198.1,488.2,192,488.2z M178,480.5c4.5,0.8,9.1,1.5,14,1.5c5.4,0,10.6-0.9,16-2.7c16.2-5.4,71.8-30.9,77.2-35.5
					l0.7-0.6c5.6-4.7,8.7-7.2,9.5-15.9c0.9-8.7-8.6-13.5-11.9-14.2c-3.9,0.2-27.6,14.3-41.9,22.8c-6.4,3.8-12.4,7.4-16.7,9.8
					C212.6,452.9,188.5,472,178,480.5z"/>
			</g>
		</g>
		<g name="pants">
			<path name="towel" fill="#942923" d="M252.4,557c0,0-3.1,66.8-18.5,81.2h32.9v-66.8L252.4,557z"/>
			<g name="underwear">
				<g>
					<path fill="#942923" d="M274.4,548.6H111.8c-8,0-14.4,6.4-14.4,14.4s6.5,14.4,14.4,14.4h7c-1.1,5.9,0.2,12.3,4.2,18.6
						c12.7,20.2,48.4,32.5,79.6,27.5c20.7-3.4,34.2-13.5,37.3-25.8c0.8,0,1.3,0,1.3,0s-0.6-13.1,14.8-20.3h18.5
						c8,0,14.4-6.4,14.4-14.4C288.8,555,282.4,548.6,274.4,548.6z"/>
				</g>
			</g>
		</g>
		<g name="head">
			<g>
				<path fill="#942923" d="M115.3,447.5c0,0.1-0.1,0.1-0.1,0.2c2.1,0.7,4.2,1.2,6.4,1.7c0,0,0.1-0.1,0.1-0.2
					C119.5,448.7,117.4,448.2,115.3,447.5z M135.5,314c-4,0-8,0.4-11.9,1c14.4-0.6,29.3,2.6,39.5,5.2c0.7,0.2,1.4,0.4,2.1,0.6
					C156.2,316.5,146.1,314,135.5,314z M71.8,358.7c0.3,0.1,0.5,0.3,0.8,0.4c0.1-1.2,0.3-2.3,0.4-3.4
					C72.6,356.7,72.2,357.7,71.8,358.7z"/>
			</g>
			<g>
				<g>
					<g>
						<path fill="#942923" d="M165.2,320.9c5,2.5,9.6,5.5,13.8,9C177,326.4,172.7,323.2,165.2,320.9z"/>
						<path fill="#942923" d="M179,330c-4.2-3.5-8.8-6.6-13.8-9c-0.7-0.2-1.4-0.4-2.1-0.6c-10.2-2.7-25.1-5.8-39.5-5.2
							c-8.1,0.3-16.1,1.8-22.9,5.2c-19,9.5-26.4,21.2-27.5,33.3c-0.1,0.7-0.1,1.4-0.2,2.1c-0.1,1.1-0.2,2.2-0.4,3.4
							c-0.3-0.2-0.5-0.3-0.8-0.4c-2.4-1.3-5.2-2-8.1-2c-9.5,0-17.2,7.7-17.2,17.2s7.7,17.2,17.2,17.2c1.5,0,3-0.2,4.4-0.6
							c3.2,27,22,49.2,47.1,57.1c0-0.1,0.1-0.1,0.1-0.2c2.1,0.7,4.2,1.2,6.4,1.7c0,0-0.1,0.1-0.1,0.2c4.5,0.9,9.1,1.4,13.9,1.4
							c37.4,0,67.9-30.7,67.9-68.4C203.4,361.4,193.9,342.5,179,330z M147.2,363l-0.3-0.4C149.1,359.3,148.1,361.3,147.2,363z
							 M135.5,444.7c-15.4,0-29.4-5.7-40.2-15.1c6.3-0.7,15.2-9.7,30.7-34.2c3.4-5.4,6.3-9.9,8.7-13.8l17.9,19l14.8-5.3l-19.6-31.4
							c6.4-3.3,30.4-16.2,32.3-23.5c0.1-0.3,0.2-0.6,0.2-0.9c10.5,11.2,17,26.3,17,42.9C197.2,416.8,169.5,444.7,135.5,444.7z"/>
					</g>
				</g>
			</g>
		</g>
		<g name="back-leg">
			<path fill="#942923" d="M148.3,675.4v-54c0-12.7,9.3-23.2,21.4-25.1c1.3-2.3,2.8-4.5,4.6-6.5c-0.2,0-0.4,0-0.6,0
				c-17.4,0-31.6,14.2-31.6,31.6v54c0,17.2,13.8,31.2,30.9,31.6c-1.6-2-3-4.3-4.1-6.6C157.2,698.1,148.3,687.8,148.3,675.4z"/>
		</g>
		<g name="torso">
			<path fill="#942923" d="M267,548.6c-2.1,4.7-5.6,8.8-11.2,11.9c-0.6,0.3-1.2,0.6-1.8,0.9c-0.6,0.3-1.3,0.6-2,0.8
				c-6.8,2.4-19.9,3.6-39.9,3.6c-36.6,0-83.8-4.1-84.3-4.1l-1.5-0.1l-0.8-1.3c-0.3-0.5-3.2-5.1-6.7-11.7
				c-5.8-11.1-13.3-27.8-13.3-40.4c0-2.3-0.1-4.8-0.1-7.4c-0.3-16.5-0.6-38.1,9.7-53.1c0-0.1,0.1-0.1,0.1-0.2
				c2.1,0.7,4.2,1.2,6.4,1.7c0,0-0.1,0.1-0.1,0.2c-10.5,13.4-10.2,35.1-9.9,51.3c0.1,2.6,0.1,5.2,0.1,7.5c0,12.5,8.6,30.1,14.2,40.4
				c1.8,3.2,3.2,5.7,4.1,7.1c8.4,0.7,49.6,4,82.2,4c26,0,35.6-2.1,39.1-3.8c3.8-1.9,6.6-4.4,8.5-7.3c5.7-8.8,3.8-21.5,1.6-35.6
				l-0.5-3.3c-1.3-8.9-11-20.5-27.8-33.6c-0.1-0.1-0.1-0.1-0.2-0.2c2.1-0.9,4.3-1.8,6.5-2.8c0.1,0.1,0.1,0.1,0.2,0.1
				c14.8,12,25.8,24.4,27.5,35.7l0.5,3.3C269.6,525.1,271.6,538.3,267,548.6z"/>
			<path fill="#942923" d="M185.4,445.2c5.6,3.1,10.9,6.2,16,9.3c1.8-1.3,3.6-2.7,5.4-3.9c-6.2-3.8-12.4-7.4-18.3-10.7
				c-3.4-1.9-6.5-3.5-9.4-5c-1.8,1.5-3.6,2.9-5.5,4.2C177.1,440.7,181,442.7,185.4,445.2z"/>
		</g>
	</g>
	<g name="phone">
		<g>
			<path fill="#942923" d="M563.2,471.6L418.2,95c-7.4-19.3-29.1-29-48.4-21.5l-184.2,70.9c-19.3,7.4-29,29.1-21.5,48.4l88.4,229.8
				c5.8-3.4,10.6-6.1,14.7-8.4l-82.3-213.9l222.9-85.8l130.8,340l-222.9,85.8L282.1,453c-4,2.1-9.2,4.7-15.1,7.6l42,108.8
				c7.4,19.3,29.1,29,48.4,21.5L541.7,520C561,512.6,570.7,490.9,563.2,471.6z M247.4,158.5c-4.3,1.7-9.2-0.5-10.9-4.8
				s0.5-9.2,4.8-10.9s9.2,0.5,10.9,4.8C254,152,251.8,156.8,247.4,158.5z M309.1,134.9l-37.2,14.3c-4.2,1.6-9-0.5-10.6-4.7
				s0.5-9,4.7-10.6l37.2-14.3c4.2-1.6,9,0.5,10.6,4.7C315.4,128.5,313.3,133.3,309.1,134.9z M445.7,545.3
				c-11.1,4.3-23.6-1.3-27.9-12.4s1.3-23.6,12.4-27.9s23.6,1.3,27.9,12.4C462.3,528.5,456.8,541,445.7,545.3z M421.1,402.8
				l-52.8,20.3c-4.2,1.6-6.4,6.4-4.7,10.6c1.6,4.2,6.4,6.4,10.6,4.7l52.8-20.3c4.2-1.6,6.4-6.4,4.7-10.6S425.4,401.2,421.1,402.8z
				 M413.5,383l-52.8,20.3c-4.2,1.6-6.4,6.4-4.7,10.6c1.6,4.2,6.4,6.4,10.6,4.7l52.8-20.3c4.2-1.6,6.4-6.4,4.7-10.6
				S417.8,381.4,413.5,383z M378.8,217.1c-4-10.3-15.5-15.4-25.8-11.5l-66.2,25.5c-10.3,4-15.4,15.5-11.5,25.8l44.5,115.7
				c4,10.3,15.5,15.4,25.8,11.5l11.1-4.3l6.4,16.7l18.5-7.1L369,356.6l15.5-22.7l-65.8-6.4l51-46.4l-42.7-4.4
				c-1.2,3-3.7,5.4-6.9,6.7c-6.3,2.4-13.4-0.7-15.9-7c-2.4-6.3,0.7-13.4,7-15.9c6.3-2.4,13.4,0.7,15.9,7c0.2,0.6,0.4,1.2,0.5,1.8
				l59.2,6.1l-50.9,46.3l61.7,6l-20.4,29.8l11.2,29.2l18.5-7.1l-6.4-16.7l11.1-4.3c10.3-4,15.4-15.5,11.5-25.8L378.8,217.1z
				 M375.8,442.5c-4.2,1.6-6.4,6.4-4.7,10.6c1.6,4.2,6.4,6.4,10.6,4.7l52.8-20.3c4.2-1.6,6.4-6.4,4.7-10.6
				c-1.6-4.2-6.4-6.4-10.6-4.7L375.8,442.5z"/>
		</g>
	</g>
</g>
</svg>
