<?xml version="1.0" encoding="UTF-8" standalone="no"?>
<svg width="131px" height="79px" viewBox="0 0 131 79" version="1.1" xmlns="http://www.w3.org/2000/svg" xmlns:xlink="http://www.w3.org/1999/xlink" xmlns:sketch="http://www.bohemiancoding.com/sketch/ns">
    <!-- Generator: Sketch 3.3.3 (12072) - http://www.bohemiancoding.com/sketch -->
    <title>SumoCreations</title>
    <desc>Created with Sketch.</desc>
    <defs></defs>
    <g id="Menu" stroke="none" stroke-width="1" fill="none" fill-rule="evenodd" sketch:type="MSPage">
        <g id="Desktop-HD" sketch:type="MSArtboardGroup" transform="translate(-31.000000, -28.000000)" fill="#E9E4CB">
            <g id="SumoCreations" sketch:type="MSLayerGroup" transform="translate(96.500000, 67.500000) rotate(-90.000000) translate(-96.500000, -67.500000) translate(57.000000, 2.000000)">
                <path d="M61.2056531,117.20278 L51.040449,117.20278 C51.040449,117.20278 51.040449,120.584878 47.6531224,120.584878 C44.2657959,120.584878 44.2657959,117.20278 44.2657959,117.20278 C44.2657959,117.20278 44.2657959,113.825512 47.6450612,113.819073 C47.8482041,113.820683 50.2649592,113.915659 50.8776122,116.104927 L60.7348776,113.918878 C59.790102,109.915415 56.8413061,103.680829 47.6531224,103.669561 L47.6289388,103.669561 C47.0469184,103.676 34.1005918,103.973805 34.1005918,117.20278 C34.1005918,130.73278 47.6531224,130.73278 47.6531224,130.73278 C47.6531224,130.73278 61.2056531,130.73278 61.2056531,117.20278" id="Fill-1" sketch:type="MSShapeGroup"></path>
                <path d="M61.1734082,14.0238537 C61.1734082,10.6401463 64.5623469,10.6401463 64.5623469,10.6401463 C64.5623469,10.6401463 67.9496735,10.6401463 67.9496735,14.0238537 C67.9496735,17.4059512 64.5623469,17.4059512 64.5623469,17.4059512 L67.0597143,27.386439 C78.1132653,25.8330244 78.1148776,14.0238537 78.1148776,14.0238537 C78.1148776,14.0238537 78.1148776,0.490634146 64.5623469,0.490634146 C51.0098163,0.490634146 51.0098163,14.0238537 51.0098163,14.0238537 C51.0098163,14.0238537 51.0098163,17.4059512 47.6208776,17.4059512 C47.6208776,17.4059512 44.233551,17.4059512 44.233551,14.0238537 C44.233551,10.6401463 47.6208776,10.6401463 47.6208776,10.6401463 L47.6208776,0.490634146 C34.0683469,0.490634146 34.0683469,14.0238537 34.0683469,14.0238537 C34.0683469,14.0238537 34.0683469,27.5538537 47.6208776,27.5538537 C47.6208776,27.5538537 61.1734082,27.5538537 61.1734082,14.0238537" id="Fill-2" sketch:type="MSShapeGroup"></path>
                <path d="M61.1734082,46.1610244 L47.6208776,46.1610244 C47.6208776,46.1610244 44.233551,46.1610244 44.233551,42.7773171 C44.233551,39.3952195 47.6208776,39.3952195 47.6208776,39.3952195 L58.6325102,39.3952195 L61.1734082,29.2473171 L47.6208776,29.2473171 C34.0683469,29.2473171 34.0683469,42.7773171 34.0683469,42.7773171 C34.0683469,42.7773171 34.0683469,56.3105366 47.6208776,56.3105366 L61.1734082,56.3105366 L61.1734082,46.1610244" id="Fill-3" sketch:type="MSShapeGroup"></path>
                <path d="M61.1734082,88.4460976 C61.1734082,88.4460976 61.1734082,83.8293171 58.4712857,79.988439 C61.1734082,76.1491707 61.1734082,71.5307805 61.1734082,71.5307805 C61.1734082,71.5307805 61.1734082,58.0007805 47.6208776,58.0007805 L34.0683469,58.0007805 L34.0683469,68.1486829 L47.6208776,68.1486829 C47.6208776,68.1486829 51.0098163,68.1486829 51.0098163,71.5307805 C51.0098163,74.9144878 47.6208776,74.9144878 47.6208776,74.9144878 L34.0683469,74.9144878 L36.6108571,85.0623902 L47.6208776,85.0623902 C47.6208776,85.0623902 51.0098163,85.0623902 51.0098163,88.4460976 C51.0098163,91.8281951 47.6208776,91.8281951 47.6208776,91.8281951 L34.0683469,91.8281951 L34.0683469,101.979317 L47.6208776,101.979317 C61.1734082,101.979317 61.1734082,88.4460976 61.1734082,88.4460976" id="Fill-4" sketch:type="MSShapeGroup"></path>
                <path d="M14.3812245,123.163707 C14.3812245,123.163707 14.3812245,117.809659 19.5436327,117.809659 C24.7060408,117.809659 24.7060408,123.163707 24.7060408,123.163707 C24.7060408,123.163707 24.7060408,128.517756 19.5436327,128.517756 L19.5436327,130.302976 C19.5436327,130.302976 26.4279184,130.302976 26.4279184,123.163707 C26.4279184,116.024439 19.5436327,116.024439 19.5436327,116.024439 C19.5436327,116.024439 12.6609592,116.024439 12.6609592,123.163707 C12.6609592,123.163707 12.6609592,128.517756 7.49693878,128.517756 C2.33130612,128.517756 2.33130612,123.163707 2.33130612,123.163707 C2.33130612,123.163707 2.33130612,117.809659 7.49693878,117.809659 L7.49693878,116.024439 C7.49693878,116.024439 0.609428571,116.024439 0.609428571,123.163707 C0.609428571,130.302976 7.49693878,130.302976 7.49693878,130.302976 C7.49693878,130.302976 14.3812245,130.302976 14.3812245,123.163707" id="Fill-5" sketch:type="MSShapeGroup"></path>
                <path d="M2.33130612,8.05970732 C2.33130612,8.05970732 2.33130612,2.70726829 7.49693878,2.70726829 L19.5436327,2.70726829 C24.7060408,2.70726829 24.7060408,8.05970732 24.7060408,8.05970732 C24.7060408,8.05970732 24.7060408,13.4137561 19.5436327,13.4137561 L19.5436327,15.1957561 C19.5436327,15.1957561 26.4295306,15.1957561 26.4295306,8.05970732 C26.4295306,0.92204878 19.5436327,0.92204878 19.5436327,0.92204878 L7.49693878,0.92204878 C7.49693878,0.92204878 0.611040816,0.92204878 0.611040816,8.05970732 C0.611040816,15.1957561 7.49693878,15.1957561 7.49693878,15.1957561 L7.49693878,13.4137561 C2.33130612,13.4137561 2.33130612,8.05970732 2.33130612,8.05970732" id="Fill-6" sketch:type="MSShapeGroup"></path>
                <path d="M26.4279184,107.099951 C26.4279184,107.099951 26.4279184,99.9639024 19.5436327,99.9639024 L0.609428571,99.9639024 L0.609428571,101.747512 L19.5436327,101.747512 C19.5436327,101.747512 24.7076531,101.747512 24.7076531,107.099951 C24.7076531,107.099951 24.7076531,112.45561 19.5436327,112.45561 L0.609428571,112.45561 L0.609428571,114.23922 L19.5436327,114.23922 C19.5436327,114.23922 26.4279184,114.23922 26.4279184,107.099951" id="Fill-7" sketch:type="MSShapeGroup"></path>
                <path d="M26.4295306,91.0426341 C26.4295306,91.0426341 26.4295306,83.9033659 19.5436327,83.9033659 L7.49693878,83.9033659 C0.611040816,83.9033659 0.611040816,91.0426341 0.611040816,91.0426341 C0.611040816,98.1786829 7.49693878,98.1786829 7.49693878,98.1786829 L19.5436327,98.1786829 C19.5436327,98.1786829 26.4295306,98.1786829 26.4295306,91.0426341 M2.33130612,91.0426341 C2.33130612,85.6869756 7.49693878,85.6869756 7.49693878,85.6869756 L19.5436327,85.6869756 C19.5436327,85.6869756 24.7060408,85.6869756 24.7060408,91.0426341 C24.7060408,91.0426341 24.7060408,96.3934634 19.5436327,96.3934634 L7.49693878,96.3934634 C2.33130612,96.3934634 2.33130612,91.0426341 2.33130612,91.0426341" id="Fill-8" sketch:type="MSShapeGroup"></path>
                <path d="M13.5202857,27.8838537 C15.3663061,31.2595122 19.5436327,31.2595122 19.5436327,31.2595122 C19.5436327,31.2595122 26.4279184,31.2595122 26.4279184,24.1202439 C26.4279184,24.1202439 26.4279184,16.9841951 19.5436327,16.9841951 L0.609428571,16.9841951 L0.609428571,18.7661951 L12.6609592,18.7661951 L12.6609592,24.1202439 C12.6609592,24.1202439 12.6609592,29.4742927 7.49693878,29.4742927 L0.609428571,29.4742927 L0.609428571,31.2595122 L7.49693878,31.2595122 C7.49693878,31.2595122 11.6710408,31.2595122 13.5202857,27.8838537 M14.3812245,18.7661951 L19.5436327,18.7661951 C19.5436327,18.7661951 24.7060408,18.7661951 24.7060408,24.1202439 C24.7060408,24.1202439 24.7060408,29.4742927 19.5436327,29.4742927 C14.3812245,29.4742927 14.3812245,24.1202439 14.3812245,24.1202439 L14.3812245,18.7661951" id="Fill-9" sketch:type="MSShapeGroup"></path>
                <path d="M24.7060408,40.1807805 L24.7060408,46.4282439 L26.4279184,46.4282439 L26.4279184,40.1807805 C26.4279184,33.0447317 19.5436327,33.0447317 19.5436327,33.0447317 L7.49693878,33.0447317 C7.49693878,33.0447317 0.609428571,33.0447317 0.609428571,40.1807805 L0.609428571,46.4282439 L2.33130612,46.4282439 L2.33130612,40.1807805 C2.33130612,40.1807805 2.33130612,34.8299512 7.49693878,34.8299512 L19.5436327,34.8299512 C24.7060408,34.8299512 24.7060408,40.1807805 24.7060408,40.1807805" id="Fill-10" sketch:type="MSShapeGroup"></path>
                <path d="M12.6609592,36.6119512 L14.3812245,36.6119512 L14.3812245,42.8578049 L12.6609592,42.8578049 L12.6609592,36.6119512 Z" id="Fill-11" sketch:type="MSShapeGroup"></path>
                <path d="M26.4279184,55.351122 C26.4279184,55.351122 26.4279184,48.2118537 19.5436327,48.2118537 L0.609428571,48.2118537 L0.609428571,49.9970732 L12.6609592,49.9970732 L12.6609592,60.703561 L0.609428571,60.703561 L0.609428571,62.4887805 L19.5436327,62.4887805 C19.5436327,62.4887805 26.4279184,62.4887805 26.4279184,55.351122 M14.3812245,60.703561 L14.3812245,49.9970732 L19.5436327,49.9970732 C19.5436327,49.9970732 24.7060408,49.9970732 24.7060408,55.351122 C24.7060408,55.351122 24.7060408,60.703561 19.5436327,60.703561 L14.3812245,60.703561" id="Fill-12" sketch:type="MSShapeGroup"></path>
                <path d="M26.4279184,64.274 L24.7076531,64.274 L24.7076531,70.5198537 L0.609428571,70.5198537 L0.609428571,72.3034634 L24.7076531,72.3034634 L24.7076531,78.5509268 L26.4279184,78.5509268 L26.4279184,64.274" id="Fill-13" sketch:type="MSShapeGroup"></path>
                <path d="M0.609428571,80.3329268 L21.263898,80.3329268 L21.263898,82.1181463 L0.609428571,82.1181463 L0.609428571,80.3329268 Z" id="Fill-14" sketch:type="MSShapeGroup"></path>
                <path d="M22.9841633,80.3329268 L26.4279184,80.3329268 L26.4279184,82.1181463 L22.9841633,82.1181463 L22.9841633,80.3329268 Z" id="Fill-15" sketch:type="MSShapeGroup"></path>
            </g>
        </g>
    </g>
</svg>